# xmcd
#
# Track frame offsets: 
#        150
#        23835
#        37872
#        57564
#        81194
#        108802
#        122599
#        138081
#        158261
#        177048
#        194952
#
# Disc length: 2867 seconds
#
# Revision: 0
# Processed by: cddbd v1.5.2PL0 Copyright (c) Steve Scherf et al.
# Submitted via: ExactAudioCopyFreeDBPlugin 1.0
#
DISCID=830b310b
DTITLE=A Million Mercies and Broken Radio - Sample and Hold
DYEAR=2014
DGENRE=Blues
TTITLE0=Happy Trails
TTITLE1=Weed
TTITLE2=Highway Love Affair
TTITLE3=It´s A Long Way Home
TTITLE4=Old Mrs. Consequence
TTITLE5=Sinners
TTITLE6=Easy Come Easy Go
TTITLE7=Lost Homeland
TTITLE8=Nothing But A Song
TTITLE9=If You Aint Got The Blues
TTITLE10=Cut The Strings
EXTD=
EXTT0=
EXTT1=
EXTT2=
EXTT3=
EXTT4=
EXTT5=
EXTT6=
EXTT7=
EXTT8=
EXTT9=
EXTT10=
PLAYORDER=
